HIERARCHY
ROOT Hips
{
  OFFSET 263.056 91.6644 -274.608
  CHANNELS 6 Xposition Yposition Zposition Zrotation Xrotation Yrotation
  JOINT LeftUpLeg
  {
    OFFSET 8.64259 1.95398 -2.38835
    CHANNELS 3 Zrotation Xrotation Yrotation
    JOINT LeftLeg
    {
      OFFSET 43.7702 0 0
      CHANNELS 3 Zrotation Xrotation Yrotation
      JOINT LeftFoot
      {
        OFFSET 40.6238 0 0
        CHANNELS 3 Zrotation Xrotation Yrotation
        JOINT LeftToeBase
        {
          OFFSET 12.7242 0 0
          CHANNELS 3 Zrotation Xrotation Yrotation
          End Site
          {
            OFFSET 0 0 0
          }
        }
      }
    }
  }
  JOINT RightUpLeg
  {
    OFFSET -8.2249 1.95398 -2.59336
    CHANNELS 3 Zrotation Xrotation Yrotation
    JOINT RightLeg
    {
      OFFSET 43.5653 0 0
      CHANNELS 3 Zrotation Xrotation Yrotation
      JOINT RightFoot
      {
        OFFSET 40.6238 0 0
        CHANNELS 3 Zrotation Xrotation Yrotation
        JOINT RightToeBase
        {
          OFFSET 12.7242 0 0
          CHANNELS 3 Zrotation Xrotation Yrotation
          End Site
          {
            OFFSET 0 0 0
          }
        }
      }
    }
  }
  JOINT Spine
  {
    OFFSET 0.165834 0.87714 6.61349
    CHANNELS 3 Zrotation Xrotation Yrotation
    JOINT Spine1
    {
      OFFSET 7.38963 1.71661e-005 0
      CHANNELS 3 Zrotation Xrotation Yrotation
      JOINT Spine2
      {
        OFFSET 11.9445 1.14441e-005 0
        CHANNELS 3 Zrotation Xrotation Yrotation
        JOINT Spine3
        {
          OFFSET 14.7254 4.19617e-005 0
          CHANNELS 3 Zrotation Xrotation Yrotation
          JOINT Spine4
          {
            OFFSET 10.9679 0 0
            CHANNELS 3 Zrotation Xrotation Yrotation
            JOINT RightShoulder
            {
              OFFSET 2.46616 -1.6653 3.69651
              CHANNELS 3 Zrotation Xrotation Yrotation
              JOINT RightArm
              {
                OFFSET 13.0012 0 0
                CHANNELS 3 Zrotation Xrotation Yrotation
                JOINT RightForeArm
                {
                  OFFSET 28.7848 1.52588e-005 0
                  CHANNELS 3 Zrotation Xrotation Yrotation
                  JOINT RightHand
                  {
                    OFFSET 26.5688 1.52588e-005 0
                    CHANNELS 3 Zrotation Xrotation Yrotation
                    End Site
                    {
                      OFFSET 0 0 0
                    }
                  }
                }
              }
            }
            JOINT LeftShoulder
            {
              OFFSET 2.38034 -1.29275 -3.7523
              CHANNELS 3 Zrotation Xrotation Yrotation
              JOINT LeftArm
              {
                OFFSET 16.3182 6.10352e-005 0
                CHANNELS 3 Zrotation Xrotation Yrotation
                JOINT LeftForeArm
                {
                  OFFSET 27.0901 0 0
                  CHANNELS 3 Zrotation Xrotation Yrotation
                  JOINT LeftHand
                  {
                    OFFSET 24.5451 1.52588e-005 0
                    CHANNELS 3 Zrotation Xrotation Yrotation
                    End Site
                    {
                      OFFSET 0 0 0
                    }
                  }
                }
              }
            }
            JOINT Neck
            {
              OFFSET 5.0226 -0.0266342 0
              CHANNELS 3 Zrotation Xrotation Yrotation
              JOINT Head
              {
                OFFSET 6.69364 2.86102e-005 0
                CHANNELS 3 Zrotation Xrotation Yrotation
                End Site
                {
                  OFFSET 0 0 0
                }
              }
            }
          }
        }
      }
    }
  }
}
MOTION
Frames:	15
Frame Time:	0.0416667
-295.024 92.4353 -298.47 42.0154 -46.503 52.066 -175.538 37.4862 85.5147 141.738 -73.0231 168.886 -23.4194 -33.4953 -55.4786 161.935 -85.4156 -145.809 171.998 35.1213 81.3864 -173.468 54.2386 154.3 83.1749 4.55828 -1.52316 40.4162 -12.8145 -149.675 3.39038 -0.806964 -88.8541 28.5684 7.11253 0.0169578 16.917 7.10633 -0.297722 -5.76475 6.77703 2.1638 14.2479 6.77701 2.1638 113.929 -17.6183 -52.6053 78.0276 -47.5244 56.5068 -2.22456 16.7338 -106.367 -2.33796 0.913263 -44.9944 -86.9164 -25.0605 77.8193 -73.3229 29.9399 39.3574 -9.26993 -9.6144 -85.4371 9.49849 0.322673 -0.397106 -21.4999 -5.40764 0.150595 -51.4919 -1.06827 -9.69813 
-293.084 93.1707 -298.162 58.2013 -50.5491 66.3314 -174.867 25.0695 86.5694 126.785 -81.8596 153.395 -21.9631 -29.9768 -61.3887 -120.902 -78.6981 -76.7108 173.166 20.1518 81.6481 -176.745 52.1352 161.43 80.0088 2.35272 -1.66955 45.1484 -28.9001 -152.408 2.52346 0.061124 -90.1799 26.1411 4.90907 -1.19087 14.4784 4.85189 -1.40621 -8.12992 5.03946 0.343238 11.8827 5.03946 0.343231 104.897 -26.5727 -76.0626 65.4875 -30.6194 50.3736 1.99425 13.4117 -108.319 -0.75648 0.320562 -35.4392 -92.9312 -30.1287 67.7718 -65.2534 17.658 38.5473 -10.5176 -8.93849 -87.0274 8.0208 0.313039 0.047736 -40.6691 -3.4121 3.26914 -31.7054 -0.769697 -8.30549 
-292.413 94.5703 -298.058 79.9912 -49.3398 82.207 -174.051 12.1286 87.0612 -20.8689 -51.6048 4.15709 6.86762 -25.5141 -53.4043 169.783 -3.627 -91.3192 -178.723 21.4561 88.4586 167.853 43.2072 -176.928 63.7073 -15.9276 -10.2239 65.011 -67.3462 -136.563 0.637966 2.69311 -90.0333 21.5469 1.09775 -0.826961 9.87579 1.06031 -0.874479 -12.6589 1.29542 -0.458811 7.35373 1.29543 -0.458815 89.3145 -38.6217 -104.605 48.1954 -19.0532 43.5701 8.4608 10.6016 -110.498 2.411 0.0846386 -15.4914 -88.9873 -34.4027 76.5744 -57.2493 15.1597 32.1469 -10.9142 -8.58336 -87.1998 6.07808 0.169258 -0.848393 -41.8411 -0.980263 11.3428 -22.0083 2.4663 -5.5065 
-289.536 94.256 -295.794 90.5766 -42.374 90.6592 -172.898 6.08616 88.7538 -26.9932 29.1862 -3.42654 42.3077 -18.1449 1.31196 61.4466 37.8411 1.19262 -178.783 21.3029 93.5105 -10.9249 29.2427 -0.156648 56.1605 -6.60213 -4.29842 45.7572 -0.9727 39.5379 -0.699289 4.24606 -89.9181 18.3899 -1.32521 0.453887 6.71964 -1.30395 0.51177 -15.8215 -1.40031 0.0345617 4.1911 -1.40033 0.0345644 74.3094 -49.9143 -124.297 32.219 -13.375 39.5694 15.6466 8.00101 -114.386 3.75187 0.979415 10.7284 -88.8853 -34.3891 76.7433 -49.1876 14.5101 25.744 -12.6605 -8.54962 -87.7977 5.7834 0.162232 -1.10799 -41.7697 1.20567 6.66383 -13.2442 2.87994 -0.981444 
-284.186 92.7392 -292.195 98.5897 -36.338 98.7647 -171.255 -4.17737 93.3853 -25.5025 59.9217 -7.42613 44.5282 -10.4795 28.1618 51.9463 32.4301 18.1691 -174.796 18.4341 96.1815 -0.724513 14.6262 -3.29411 59.1912 -0.501037 -0.137742 57.6009 1.44225 -1.78081 -0.972407 6.28237 -89.9352 14.3146 -1.89424 0.394482 2.64491 -1.87504 0.477489 -19.9013 -1.92518 -0.193275 0.111339 -1.92521 -0.193274 76.1642 -54.3201 -119.621 24.1725 -12.965 26.9345 20.6159 5.92104 -117.451 -0.22137 0.40594 21.0962 -90.825 -35.2588 73.5371 -37.4938 14.0615 13.9299 -2.38321 -7.27222 -87.9462 -4.91037 -0.238769 2.31385 -30.2686 1.50108 -0.527988 -12.728 1.36952 1.41957 
-277.656 90.7396 -286.936 105.102 -31.9149 104.072 -168.413 -13.4148 98.996 -31.7969 64.9378 -4.01367 47.3489 -6.12463 30.9378 52.6807 32.3539 15.8024 -177.681 14.1206 97.723 -4.30108 19.8089 1.6582 61.3759 -1.89504 -1.05053 52.5885 2.16029 4.31734 -0.777314 8.08916 -90.3048 10.6945 -1.68819 -0.452984 -0.975356 -1.70649 -0.378236 -23.5172 -1.474 -0.939496 -3.50451 -1.47398 -0.939498 84.4765 -53.8956 -107.988 20.716 -11.5828 14.078 21.0592 4.6772 -119.294 -1.99419 -0.0837108 23.0609 -94.8233 -38.3481 67.7241 -27.0712 11.5352 3.84433 1.75529 -6.35285 -88.2639 -8.6697 -0.596837 4.92366 -16.4277 -0.436484 -2.85585 -16.3395 -0.611215 1.14331 
-269.386 89.4259 -281.251 106.436 -31.8169 108.072 -166.53 -15.2731 104.181 -42.1877 49.0414 1.37718 51.0517 -5.91022 12.4682 50.5365 30.4955 18.3516 -178.874 14.9291 100.721 -16.3062 11.7536 4.02002 54.1348 -0.643562 -0.282895 38.6484 0.625624 6.42385 -0.491887 8.60327 -90.9585 9.65459 -1.41367 -1.78245 -2.01671 -1.49075 -1.71852 -24.5447 -0.812759 -2.12478 -4.5321 -0.812763 -2.12478 85.8618 -52.9028 -106.265 18.9959 -10.2093 9.59784 20.3044 4.62081 -120.507 -1.81222 -0.0829053 26.2325 -97.4122 -40.4179 64.2692 -25.6844 9.89793 1.9337 -3.68997 -6.8235 -87.4378 -3.00639 -0.148324 1.21715 -11.1641 -1.16742 -0.950168 -18.017 -1.16371 0.239415 
-261.408 89.2975 -275.387 105.8 -32.2956 107.723 -169.961 -9.17623 103.494 -54.8735 33.2352 2.98979 42.7121 -13.7205 -3.40245 50.7687 29.8267 15.8913 -177.767 18.9175 103.669 -33.5545 14.2222 1.48779 61.8114 -2.79593 -1.58168 31.1607 -0.280037 10.4479 -0.356734 8.44988 -91.0659 9.95873 -1.19525 -2.01648 -1.71314 -1.28283 -1.96195 -24.237 -0.53415 -2.28234 -4.22434 -0.534147 -2.28234 85.4951 -52.1571 -107.021 18.961 -10.7034 9.13753 19.8092 5.47203 -120.501 -0.834606 0.210078 27.7525 -98.38 -40.8831 62.9102 -27.1474 10.5543 3.55811 -12.8668 -7.91719 -86.8109 5.93524 0.098278 -1.73833 -11.3648 -1.18587 0.0256122 -18.3509 -1.2075 0.0654957 
-253.809 90.8639 -269.177 101.763 -34.8809 102.802 -173.298 5.0576 100.103 -64.3699 22.3464 1.9573 46.1467 -9.74703 3.90301 37.3664 9.93841 6.21448 -179.084 17.2673 101.574 -37.4022 9.42915 1.29645 68.1966 -3.07804 -1.66379 23.6228 -1.37835 9.72217 -0.096123 8.00261 -90.8228 10.862 -0.571371 -1.583 -0.809772 -0.640471 -1.55634 -23.3372 -0.069289 -1.68151 -3.3246 -0.0692976 -1.68152 84.302 -51.3319 -109.042 18.2342 -9.801 8.60283 21.5944 4.00642 -118.404 -0.304637 0.40626 23.7882 -98.4337 -41.7505 63.1806 -26.6428 9.95646 2.47989 -15.7209 -8.54674 -85.8211 6.63137 0.0480779 -2.60942 -12.5253 -0.883854 0.925192 -17.1587 -0.883583 -0.321836 
-246.289 93.2452 -262.898 95.0169 -38.6562 96.0336 -173.809 18.4597 95.2781 -58.2625 13.7191 0.992727 53.5896 -3.28029 5.323 38.0844 10.2746 -0.662293 -178.811 12.5766 99.3552 -30.4439 6.86452 0.026143 72.158 -4.55074 -2.31826 23.6654 -1.47898 10.7204 0.215851 7.39251 -90.5356 12.0892 0.17599 -1.08867 0.417776 0.127913 -1.09536 -22.1144 0.495028 -0.985462 -2.10179 0.495029 -0.985463 84.8715 -49.8636 -108.663 18.4413 -10.9184 6.132 20.3561 3.49527 -111.824 -0.264312 0.374605 16.9197 -97.9229 -41.9816 64.083 -27.5894 8.37668 3.29685 -14.4284 -7.76989 -87.2502 7.77286 0.0597015 -2.70338 -12.776 -0.622442 2.68263 -17.3173 -0.525666 -1.48373 
-239.146 94.4328 -256.938 92.0324 -41.5441 91.7115 -174.795 23.0726 91.9984 -38.1492 11.9032 0.522216 56.4859 -0.35492 6.46767 44.8257 20.2517 11.3506 -179.456 5.83684 96.7886 -25.0815 3.27219 -0.915964 74.0448 -4.94444 -2.42132 26.5963 -1.00622 10.4156 0.391467 7.14318 -90.25 12.5883 0.65858 -0.575016 0.917358 0.632616 -0.603446 -21.6186 0.800914 -0.350505 -1.60597 0.800944 -0.350499 84.8202 -48.9963 -109.022 18.659 -11.6451 4.30452 20.0797 0.742279 -103.853 -2.36476 0.076997 7.84453 -96.8352 -41.9849 65.8102 -28.1683 5.99275 4.526 -11.4485 -6.85933 -88.942 4.41222 -0.025186 -3.24513 -12.9366 0.243374 4.03693 -16.6747 0.33505 -1.72054 
-232.317 94.5072 -251.455 93.373 -44.4545 90.6224 -175.043 20.7608 90.2536 -11.0201 11.6206 0.133865 58.3911 2.27291 9.0972 46.7033 22.7824 11.6634 177.808 -3.58853 93.6132 -21.1028 -1.26413 -0.600833 75.7524 -5.68638 -2.69358 30.7217 -0.338111 10.2114 0.547618 7.29833 -90.0376 12.2784 1.07053 -0.196246 0.60789 1.06085 -0.243181 -21.9308 1.08 0.134598 -1.91813 1.08002 0.134601 85.2991 -47.5568 -108.761 18.8617 -13.0463 1.96224 18.4932 -1.137 -97.7113 -6.51035 -0.224461 2.19946 -95.6979 -42.3156 67.7443 -28.5737 5.0496 5.09109 -11.8516 -6.40253 -91.2246 5.17513 0.00360705 -2.95411 -11.9667 0.968251 5.55556 -16.9659 1.01322 -1.98749 
-225.846 93.4571 -246.178 98.6529 -47.344 92.1471 -175.222 20.2117 88.6033 -3.52295 7.88214 0.0998745 61.9604 3.94211 9.13671 48.7302 25.6373 12.2563 175.196 -10.8131 89.1213 -23.4805 -5.93642 -2.43194 77.9324 -7.10356 -3.21194 37.1934 0.608455 8.21085 0.756264 7.69674 -89.7405 11.4787 1.62598 0.351303 -0.191295 1.63984 0.279377 -22.7329 1.4452 0.823823 -2.7202 1.44521 0.823824 84.8569 -47.0427 -109.621 18.7136 -16.0623 0.573333 30.304 -0.229021 -100.368 -15.0614 -1.18711 3.25824 -94.5934 -42.6725 69.6301 -28.1827 5.2413 4.76208 -11.0617 -6.05432 -93.4417 5.12464 0.127664 -1.04051 -11.5537 1.59961 6.18508 -17.5189 1.6888 -2.5712 
-218.265 91.7796 -240.112 102.434 -48.5622 92.3044 -174.922 17.6444 85.6072 -7.02982 9.07467 -1.86248 55.8562 0.948714 10.1252 49.7534 27.0046 12.3225 173.474 -12.9907 85.0249 -34.2189 -8.05556 -5.55177 73.0426 -4.82979 -2.37684 51.5331 2.79618 9.0052 0.90105 7.95436 -89.3536 10.9548 2.09306 1.08496 -0.714872 2.13879 0.991752 -23.2558 1.67024 1.66391 -3.24314 1.67025 1.6639 84.357 -47.5732 -110.213 18.7065 -15.506 1.51618 29.866 0.399999 -100.691 -9.06826 -0.730812 5.37425 -93.8741 -42.7553 70.8069 -27.9008 6.95959 3.32645 -13.6738 -6.11497 -94.133 8.9127 0.282191 -0.587504 -11.5719 1.33097 5.27001 -18.5028 1.47655 -2.5726 
-209.818 91.0336 -233.379 102.436 -46.8675 90.3378 -175.445 17.2959 82.8584 -16.2073 15.1797 -2.40736 50.7217 -3.24245 9.20575 45.1168 17.5948 -2.27874 173.477 -8.30797 82.3356 -48.1738 -8.98028 -6.68408 50.2451 3.06378 3.00717 50.4897 3.35391 17.6666 0.689188 7.80243 -89.0226 11.252 1.82647 1.76489 -0.418699 1.90237 1.68279 -22.9495 1.21175 2.23207 -2.93686 1.21176 2.23208 83.1525 -49.4391 -111.401 18.9272 -13.2184 5.05282 21.4101 -0.274431 -98.4746 -3.84831 0.0272762 2.63686 -93.9951 -42.5103 70.5328 -27.8931 7.85277 4.01501 -13.6449 -6.4182 -93.354 9.2037 0.329439 -0.210587 -13.1672 1.06862 3.8833 -19.2214 1.3142 -2.3866 
